<svg width="1920" height="895" xmlns="http://www.w3.org/2000/svg"><g><path d="M-119,-83L-116,384L-117,51Z" fill="#f5f8ff" stroke="#f5f8ff" fill-opacity="1" stroke-opacity="1"></path><path d="M-119,-83L-117,51L89,37Z" fill="#fefafd" stroke="#fefafd" fill-opacity="1" stroke-opacity="1"></path><path d="M-119,-83L89,37L107,-37Z" fill="#f9f6fb" stroke="#f9f6fb" fill-opacity="1" stroke-opacity="1"></path><path d="M-119,-83L107,-37L169,-48Z" fill="#f7f5fa" stroke="#f7f5fa" fill-opacity="1" stroke-opacity="1"></path><path d="M-119,-83L169,-48L423,-101Z" fill="#efeff7" stroke="#efeff7" fill-opacity="1" stroke-opacity="1"></path><path d="M107,-37L89,37L169,-48Z" fill="#f2f1f8" stroke="#f2f1f8" fill-opacity="1" stroke-opacity="1"></path><path d="M169,-48L89,37L260,44Z" fill="#edeef6" stroke="#edeef6" fill-opacity="1" stroke-opacity="1"></path><path d="M169,-48L260,44L423,-101Z" fill="#e6e9f3" stroke="#e6e9f3" fill-opacity="1" stroke-opacity="1"></path><path d="M423,-101L260,44L381,135Z" fill="#dee5f1" stroke="#dee5f1" fill-opacity="1" stroke-opacity="1"></path><path d="M423,-101L381,135L489,115Z" fill="#d5e0ef" stroke="#d5e0ef" fill-opacity="1" stroke-opacity="1"></path><path d="M423,-101L489,115L554,-20Z" fill="#d3e0ee" stroke="#d3e0ee" fill-opacity="1" stroke-opacity="1"></path><path d="M423,-101L554,-20L653,-18Z" fill="#ccdeed" stroke="#ccdeed" fill-opacity="1" stroke-opacity="1"></path><path d="M423,-101L653,-18L795,-96Z" fill="#c3daeb" stroke="#c3daeb" fill-opacity="1" stroke-opacity="1"></path><path d="M423,-101L795,-96L940,-106Z" fill="#b9d6e8" stroke="#b9d6e8" fill-opacity="1" stroke-opacity="1"></path><path d="M554,-20L489,115L661,115Z" fill="#c4daec" stroke="#c4daec" fill-opacity="1" stroke-opacity="1"></path><path d="M554,-20L661,115L653,-18Z" fill="#c2d9eb" stroke="#c2d9eb" fill-opacity="1" stroke-opacity="1"></path><path d="M653,-18L661,115L815,69Z" fill="#b5d4e9" stroke="#b5d4e9" fill-opacity="1" stroke-opacity="1"></path><path d="M653,-18L815,69L795,-96Z" fill="#b5d5e8" stroke="#b5d5e8" fill-opacity="1" stroke-opacity="1"></path><path d="M795,-96L815,69L940,-106Z" fill="#abd2e1" stroke="#abd2e1" fill-opacity="1" stroke-opacity="1"></path><path d="M940,-106L815,69L930,77Z" fill="#a6d0de" stroke="#a6d0de" fill-opacity="1" stroke-opacity="1"></path><path d="M940,-106L930,77L1111,16Z" fill="#9dcdd7" stroke="#9dcdd7" fill-opacity="1" stroke-opacity="1"></path><path d="M940,-106L1111,16L1181,-92Z" fill="#95cad2" stroke="#95cad2" fill-opacity="1" stroke-opacity="1"></path><path d="M940,-106L1181,-92L1326,-95Z" fill="#8ec8cc" stroke="#8ec8cc" fill-opacity="1" stroke-opacity="1"></path><path d="M940,-106L1326,-95L1612,-112Z" fill="#89c1c1" stroke="#89c1c1" fill-opacity="1" stroke-opacity="1"></path><path d="M1181,-92L1111,16L1289,56Z" fill="#8cc6c9" stroke="#8cc6c9" fill-opacity="1" stroke-opacity="1"></path><path d="M1181,-92L1289,56L1326,-95Z" fill="#8ac2c3" stroke="#8ac2c3" fill-opacity="1" stroke-opacity="1"></path><path d="M1326,-95L1289,56L1467,-47Z" fill="#86bebb" stroke="#86bebb" fill-opacity="1" stroke-opacity="1"></path><path d="M1326,-95L1467,-47L1612,-112Z" fill="#83b9b2" stroke="#83b9b2" fill-opacity="1" stroke-opacity="1"></path><path d="M1467,-47L1289,56L1367,115Z" fill="#82bcba" stroke="#82bcba" fill-opacity="1" stroke-opacity="1"></path><path d="M1467,-47L1367,115L1594,110Z" fill="#7db6b1" stroke="#7db6b1" fill-opacity="1" stroke-opacity="1"></path><path d="M1467,-47L1594,110L1612,-112Z" fill="#80b5aa" stroke="#80b5aa" fill-opacity="1" stroke-opacity="1"></path><path d="M1612,-112L1594,110L1691,25Z" fill="#7fb1a4" stroke="#7fb1a4" fill-opacity="1" stroke-opacity="1"></path><path d="M1612,-112L1691,25L1714,-109Z" fill="#80afa1" stroke="#80afa1" fill-opacity="1" stroke-opacity="1"></path><path d="M1612,-112L1714,-109L1831,-107Z" fill="#80ad9d" stroke="#80ad9d" fill-opacity="1" stroke-opacity="1"></path><path d="M1714,-109L1691,25L1831,-107Z" fill="#80ac9b" stroke="#80ac9b" fill-opacity="1" stroke-opacity="1"></path><path d="M1831,-107L1691,25L1875,27Z" fill="#80a996" stroke="#80a996" fill-opacity="1" stroke-opacity="1"></path><path d="M1831,-107L1875,27L2008,-85Z" fill="#80a48e" stroke="#80a48e" fill-opacity="1" stroke-opacity="1"></path><path d="M2008,-85L1875,27L2039,119Z" fill="#7ea088" stroke="#7ea088" fill-opacity="1" stroke-opacity="1"></path><path d="M2008,-85L2039,119L2079,284Z" fill="#779a82" stroke="#779a82" fill-opacity="1" stroke-opacity="1"></path><path d="M-117,51L-116,384L-81,224Z" fill="#e5f0fd" stroke="#e5f0fd" fill-opacity="1" stroke-opacity="1"></path><path d="M-117,51L-81,224L89,37Z" fill="#f5f5fc" stroke="#f5f5fc" fill-opacity="1" stroke-opacity="1"></path><path d="M89,37L-81,224L119,200Z" fill="#ebeffa" stroke="#ebeffa" fill-opacity="1" stroke-opacity="1"></path><path d="M89,37L119,200L260,44Z" fill="#e7ecf7" stroke="#e7ecf7" fill-opacity="1" stroke-opacity="1"></path><path d="M260,44L119,200L257,220Z" fill="#dee6f5" stroke="#dee6f5" fill-opacity="1" stroke-opacity="1"></path><path d="M260,44L257,220L381,135Z" fill="#dae3f3" stroke="#dae3f3" fill-opacity="1" stroke-opacity="1"></path><path d="M381,135L257,220L323,272Z" fill="#cbdcf2" stroke="#cbdcf2" fill-opacity="1" stroke-opacity="1"></path><path d="M381,135L323,272L536,169Z" fill="#c8daef" stroke="#c8daef" fill-opacity="1" stroke-opacity="1"></path><path d="M381,135L536,169L489,115Z" fill="#c9dbee" stroke="#c9dbee" fill-opacity="1" stroke-opacity="1"></path><path d="M489,115L536,169L661,115Z" fill="#bfd7ec" stroke="#bfd7ec" fill-opacity="1" stroke-opacity="1"></path><path d="M661,115L536,169L624,257Z" fill="#b6d3eb" stroke="#b6d3eb" fill-opacity="1" stroke-opacity="1"></path><path d="M661,115L624,257L808,269Z" fill="#a2cce8" stroke="#a2cce8" fill-opacity="1" stroke-opacity="1"></path><path d="M661,115L808,269L815,69Z" fill="#a7cee7" stroke="#a7cee7" fill-opacity="1" stroke-opacity="1"></path><path d="M815,69L808,269L930,77Z" fill="#a0cce1" stroke="#a0cce1" fill-opacity="1" stroke-opacity="1"></path><path d="M930,77L808,269L1026,226Z" fill="#92c6dc" stroke="#92c6dc" fill-opacity="1" stroke-opacity="1"></path><path d="M930,77L1026,226L1111,16Z" fill="#91c7d5" stroke="#91c7d5" fill-opacity="1" stroke-opacity="1"></path><path d="M1111,16L1026,226L1153,212Z" fill="#87c3d0" stroke="#87c3d0" fill-opacity="1" stroke-opacity="1"></path><path d="M1111,16L1153,212L1289,56Z" fill="#85c2ca" stroke="#85c2ca" fill-opacity="1" stroke-opacity="1"></path><path d="M1289,56L1153,212L1265,250Z" fill="#7cbdc5" stroke="#7cbdc5" fill-opacity="1" stroke-opacity="1"></path><path d="M1289,56L1265,250L1367,115Z" fill="#7cbabf" stroke="#7cbabf" fill-opacity="1" stroke-opacity="1"></path><path d="M1367,115L1265,250L1367,196Z" fill="#76b7bd" stroke="#76b7bd" fill-opacity="1" stroke-opacity="1"></path><path d="M1367,115L1367,196L1594,110Z" fill="#78b4b4" stroke="#78b4b4" fill-opacity="1" stroke-opacity="1"></path><path d="M1594,110L1367,196L1623,251Z" fill="#70aead" stroke="#70aead" fill-opacity="1" stroke-opacity="1"></path><path d="M1594,110L1623,251L1771,187Z" fill="#70a8a2" stroke="#70a8a2" fill-opacity="1" stroke-opacity="1"></path><path d="M1594,110L1771,187L1691,25Z" fill="#77aaa0" stroke="#77aaa0" fill-opacity="1" stroke-opacity="1"></path><path d="M1691,25L1771,187L1875,27Z" fill="#79a798" stroke="#79a798" fill-opacity="1" stroke-opacity="1"></path><path d="M1875,27L1771,187L1905,243Z" fill="#73a192" stroke="#73a192" fill-opacity="1" stroke-opacity="1"></path><path d="M1875,27L1905,243L2039,119Z" fill="#759d8b" stroke="#759d8b" fill-opacity="1" stroke-opacity="1"></path><path d="M2039,119L1905,243L2079,284Z" fill="#669484" stroke="#669484" fill-opacity="1" stroke-opacity="1"></path><path d="M-81,224L-116,384L84,406Z" fill="#c1e0f9" stroke="#c1e0f9" fill-opacity="1" stroke-opacity="1"></path><path d="M-81,224L84,406L119,200Z" fill="#cde3f8" stroke="#cde3f8" fill-opacity="1" stroke-opacity="1"></path><path d="M119,200L84,406L254,393Z" fill="#b4d7f3" stroke="#b4d7f3" fill-opacity="1" stroke-opacity="1"></path><path d="M119,200L254,393L257,220Z" fill="#c2dbf3" stroke="#c2dbf3" fill-opacity="1" stroke-opacity="1"></path><path d="M257,220L254,393L323,272Z" fill="#b6d5f1" stroke="#b6d5f1" fill-opacity="1" stroke-opacity="1"></path><path d="M323,272L254,393L325,340Z" fill="#a9d0ef" stroke="#a9d0ef" fill-opacity="1" stroke-opacity="1"></path><path d="M323,272L325,340L558,321Z" fill="#a8ceed" stroke="#a8ceed" fill-opacity="1" stroke-opacity="1"></path><path d="M323,272L558,321L536,169Z" fill="#b0d1ed" stroke="#b0d1ed" fill-opacity="1" stroke-opacity="1"></path><path d="M536,169L558,321L624,257Z" fill="#a6cdea" stroke="#a6cdea" fill-opacity="1" stroke-opacity="1"></path><path d="M624,257L558,321L651,390Z" fill="#8dc4e8" stroke="#8dc4e8" fill-opacity="1" stroke-opacity="1"></path><path d="M624,257L651,390L808,269Z" fill="#88c2e6" stroke="#88c2e6" fill-opacity="1" stroke-opacity="1"></path><path d="M808,269L651,390L799,415Z" fill="#73bae4" stroke="#73bae4" fill-opacity="1" stroke-opacity="1"></path><path d="M808,269L799,415L978,360Z" fill="#6bb7dd" stroke="#6bb7dd" fill-opacity="1" stroke-opacity="1"></path><path d="M808,269L978,360L1026,226Z" fill="#76bcd9" stroke="#76bcd9" fill-opacity="1" stroke-opacity="1"></path><path d="M1026,226L978,360L1155,412Z" fill="#5cb3d0" stroke="#5cb3d0" fill-opacity="1" stroke-opacity="1"></path><path d="M1026,226L1155,412L1153,212Z" fill="#65b6cd" stroke="#65b6cd" fill-opacity="1" stroke-opacity="1"></path><path d="M1153,212L1155,412L1265,250Z" fill="#5db2c7" stroke="#5db2c7" fill-opacity="1" stroke-opacity="1"></path><path d="M1265,250L1155,412L1332,435Z" fill="#46a8bf" stroke="#46a8bf" fill-opacity="1" stroke-opacity="1"></path><path d="M1265,250L1332,435L1367,196Z" fill="#58acbc" stroke="#58acbc" fill-opacity="1" stroke-opacity="1"></path><path d="M1367,196L1332,435L1472,389Z" fill="#48a4b5" stroke="#48a4b5" fill-opacity="1" stroke-opacity="1"></path><path d="M1367,196L1472,389L1623,251Z" fill="#56a6ae" stroke="#56a6ae" fill-opacity="1" stroke-opacity="1"></path><path d="M1623,251L1472,389L1530,433Z" fill="#3e9aa8" stroke="#3e9aa8" fill-opacity="1" stroke-opacity="1"></path><path d="M1623,251L1530,433L1694,497Z" fill="#35949b" stroke="#35949b" fill-opacity="1" stroke-opacity="1"></path><path d="M1623,251L1694,497L1777,407Z" fill="#379196" stroke="#379196" fill-opacity="1" stroke-opacity="1"></path><path d="M1623,251L1777,407L1771,187Z" fill="#539a9a" stroke="#539a9a" fill-opacity="1" stroke-opacity="1"></path><path d="M1771,187L1777,407L1905,243Z" fill="#549693" stroke="#549693" fill-opacity="1" stroke-opacity="1"></path><path d="M1905,243L1777,407L1823,433Z" fill="#3d8d8f" stroke="#3d8d8f" fill-opacity="1" stroke-opacity="1"></path><path d="M1905,243L1823,433L2080,337Z" fill="#448a87" stroke="#448a87" fill-opacity="1" stroke-opacity="1"></path><path d="M1905,243L2080,337L2079,284Z" fill="#528c81" stroke="#528c81" fill-opacity="1" stroke-opacity="1"></path><path d="M-116,384L-101,867L-97,573Z" fill="#91cacb" stroke="#91cacb" fill-opacity="1" stroke-opacity="1"></path><path d="M-116,384L-97,573L84,406Z" fill="#a4d6e7" stroke="#a4d6e7" fill-opacity="1" stroke-opacity="1"></path><path d="M84,406L-97,573L118,582Z" fill="#8eced9" stroke="#8eced9" fill-opacity="1" stroke-opacity="1"></path><path d="M84,406L118,582L203,561Z" fill="#88c9d7" stroke="#88c9d7" fill-opacity="1" stroke-opacity="1"></path><path d="M84,406L203,561L254,393Z" fill="#94cce1" stroke="#94cce1" fill-opacity="1" stroke-opacity="1"></path><path d="M254,393L203,561L419,540Z" fill="#81c2d5" stroke="#81c2d5" fill-opacity="1" stroke-opacity="1"></path><path d="M254,393L419,540L325,340Z" fill="#90c6e2" stroke="#90c6e2" fill-opacity="1" stroke-opacity="1"></path><path d="M325,340L419,540L513,524Z" fill="#7dbfd7" stroke="#7dbfd7" fill-opacity="1" stroke-opacity="1"></path><path d="M325,340L513,524L558,321Z" fill="#8ac3e4" stroke="#8ac3e4" fill-opacity="1" stroke-opacity="1"></path><path d="M558,321L513,524L651,390Z" fill="#7abdde" stroke="#7abdde" fill-opacity="1" stroke-opacity="1"></path><path d="M651,390L513,524L657,484Z" fill="#69b7d4" stroke="#69b7d4" fill-opacity="1" stroke-opacity="1"></path><path d="M651,390L657,484L799,415Z" fill="#67b6d8" stroke="#67b6d8" fill-opacity="1" stroke-opacity="1"></path><path d="M799,415L657,484L811,560Z" fill="#53afcc" stroke="#53afcc" fill-opacity="1" stroke-opacity="1"></path><path d="M799,415L811,560L1025,480Z" fill="#47abc4" stroke="#47abc4" fill-opacity="1" stroke-opacity="1"></path><path d="M799,415L1025,480L978,360Z" fill="#52afcd" stroke="#52afcd" fill-opacity="1" stroke-opacity="1"></path><path d="M978,360L1025,480L1155,412Z" fill="#47abc4" stroke="#47abc4" fill-opacity="1" stroke-opacity="1"></path><path d="M1155,412L1025,480L1132,538Z" fill="#33a5b6" stroke="#33a5b6" fill-opacity="1" stroke-opacity="1"></path><path d="M1155,412L1132,538L1305,573Z" fill="#259fa9" stroke="#259fa9" fill-opacity="1" stroke-opacity="1"></path><path d="M1155,412L1305,573L1332,435Z" fill="#2b9eaa" stroke="#2b9eaa" fill-opacity="1" stroke-opacity="1"></path><path d="M1332,435L1305,573L1376,580Z" fill="#1b969a" stroke="#1b969a" fill-opacity="1" stroke-opacity="1"></path><path d="M1332,435L1376,580L1472,389Z" fill="#2898a0" stroke="#2898a0" fill-opacity="1" stroke-opacity="1"></path><path d="M1472,389L1376,580L1530,433Z" fill="#26959b" stroke="#26959b" fill-opacity="1" stroke-opacity="1"></path><path d="M1530,433L1376,580L1568,506Z" fill="#1b9191" stroke="#1b9191" fill-opacity="1" stroke-opacity="1"></path><path d="M1530,433L1568,506L1694,497Z" fill="#208e8d" stroke="#208e8d" fill-opacity="1" stroke-opacity="1"></path><path d="M1777,407L1694,497L1823,433Z" fill="#288985" stroke="#288985" fill-opacity="1" stroke-opacity="1"></path><path d="M1823,433L1694,497L1751,640Z" fill="#158378" stroke="#158378" fill-opacity="1" stroke-opacity="1"></path><path d="M1823,433L1751,640L1902,567Z" fill="#127e6e" stroke="#127e6e" fill-opacity="1" stroke-opacity="1"></path><path d="M1823,433L1902,567L2047,531Z" fill="#187c6c" stroke="#187c6c" fill-opacity="1" stroke-opacity="1"></path><path d="M1823,433L2047,531L2080,337Z" fill="#2b8075" stroke="#2b8075" fill-opacity="1" stroke-opacity="1"></path><path d="M2080,337L2047,531L2075,956Z" fill="#126b4c" stroke="#126b4c" fill-opacity="1" stroke-opacity="1"></path><path d="M-97,573L-101,867L-71,706Z" fill="#91bdb3" stroke="#91bdb3" fill-opacity="1" stroke-opacity="1"></path><path d="M-97,573L-71,706L118,582Z" fill="#8ec5c6" stroke="#8ec5c6" fill-opacity="1" stroke-opacity="1"></path><path d="M118,582L-71,706L128,696Z" fill="#88bcbb" stroke="#88bcbb" fill-opacity="1" stroke-opacity="1"></path><path d="M118,582L128,696L203,561Z" fill="#82bdc2" stroke="#82bdc2" fill-opacity="1" stroke-opacity="1"></path><path d="M203,561L128,696L269,640Z" fill="#7eb8bd" stroke="#7eb8bd" fill-opacity="1" stroke-opacity="1"></path><path d="M203,561L269,640L419,540Z" fill="#77bac5" stroke="#77bac5" fill-opacity="1" stroke-opacity="1"></path><path d="M419,540L269,640L363,677Z" fill="#73b2bb" stroke="#73b2bb" fill-opacity="1" stroke-opacity="1"></path><path d="M419,540L363,677L520,724Z" fill="#6bacb3" stroke="#6bacb3" fill-opacity="1" stroke-opacity="1"></path><path d="M419,540L520,724L513,524Z" fill="#65b0bd" stroke="#65b0bd" fill-opacity="1" stroke-opacity="1"></path><path d="M513,524L520,724L637,710Z" fill="#5da6af" stroke="#5da6af" fill-opacity="1" stroke-opacity="1"></path><path d="M513,524L637,710L657,484Z" fill="#58adbf" stroke="#58adbf" fill-opacity="1" stroke-opacity="1"></path><path d="M657,484L637,710L801,649Z" fill="#4da4b4" stroke="#4da4b4" fill-opacity="1" stroke-opacity="1"></path><path d="M657,484L801,649L811,560Z" fill="#47a8bd" stroke="#47a8bd" fill-opacity="1" stroke-opacity="1"></path><path d="M811,560L801,649L938,686Z" fill="#3d9da9" stroke="#3d9da9" fill-opacity="1" stroke-opacity="1"></path><path d="M811,560L938,686L1025,480Z" fill="#36a1b0" stroke="#36a1b0" fill-opacity="1" stroke-opacity="1"></path><path d="M1025,480L938,686L1132,538Z" fill="#2c9faa" stroke="#2c9faa" fill-opacity="1" stroke-opacity="1"></path><path d="M1132,538L938,686L1121,717Z" fill="#289496" stroke="#289496" fill-opacity="1" stroke-opacity="1"></path><path d="M1132,538L1121,717L1244,615Z" fill="#1f9394" stroke="#1f9394" fill-opacity="1" stroke-opacity="1"></path><path d="M1132,538L1244,615L1305,573Z" fill="#1d969a" stroke="#1d969a" fill-opacity="1" stroke-opacity="1"></path><path d="M1305,573L1244,615L1415,668Z" fill="#1a8c88" stroke="#1a8c88" fill-opacity="1" stroke-opacity="1"></path><path d="M1305,573L1415,668L1376,580Z" fill="#188c87" stroke="#188c87" fill-opacity="1" stroke-opacity="1"></path><path d="M1376,580L1415,668L1543,623Z" fill="#15867d" stroke="#15867d" fill-opacity="1" stroke-opacity="1"></path><path d="M1376,580L1543,623L1568,506Z" fill="#148a84" stroke="#148a84" fill-opacity="1" stroke-opacity="1"></path><path d="M1568,506L1543,623L1694,497Z" fill="#128981" stroke="#128981" fill-opacity="1" stroke-opacity="1"></path><path d="M1694,497L1543,623L1751,640Z" fill="#128073" stroke="#128073" fill-opacity="1" stroke-opacity="1"></path><path d="M1902,567L1751,640L1932,724Z" fill="#127056" stroke="#127056" fill-opacity="1" stroke-opacity="1"></path><path d="M1902,567L1932,724L1992,655Z" fill="#126c4e" stroke="#126c4e" fill-opacity="1" stroke-opacity="1"></path><path d="M1902,567L1992,655L2047,531Z" fill="#127259" stroke="#127259" fill-opacity="1" stroke-opacity="1"></path><path d="M2047,531L1992,655L2007,805Z" fill="#126745" stroke="#126745" fill-opacity="1" stroke-opacity="1"></path><path d="M2047,531L2007,805L2075,956Z" fill="#12592e" stroke="#12592e" fill-opacity="1" stroke-opacity="1"></path><path d="M-71,706L-101,867L26,861Z" fill="#90af9e" stroke="#90af9e" fill-opacity="1" stroke-opacity="1"></path><path d="M-71,706L26,861L128,696Z" fill="#8bb2a8" stroke="#8bb2a8" fill-opacity="1" stroke-opacity="1"></path><path d="M128,696L26,861L191,834Z" fill="#84a99c" stroke="#84a99c" fill-opacity="1" stroke-opacity="1"></path><path d="M128,696L191,834L269,640Z" fill="#7eaeaa" stroke="#7eaeaa" fill-opacity="1" stroke-opacity="1"></path><path d="M269,640L191,834L330,822Z" fill="#79a59f" stroke="#79a59f" fill-opacity="1" stroke-opacity="1"></path><path d="M269,640L330,822L363,677Z" fill="#75a9a8" stroke="#75a9a8" fill-opacity="1" stroke-opacity="1"></path><path d="M363,677L330,822L513,817Z" fill="#6e9e99" stroke="#6e9e99" fill-opacity="1" stroke-opacity="1"></path><path d="M363,677L513,817L520,724Z" fill="#679f9f" stroke="#679f9f" fill-opacity="1" stroke-opacity="1"></path><path d="M520,724L513,817L637,710Z" fill="#5d9a9a" stroke="#5d9a9a" fill-opacity="1" stroke-opacity="1"></path><path d="M637,710L513,817L694,794Z" fill="#569594" stroke="#569594" fill-opacity="1" stroke-opacity="1"></path><path d="M637,710L694,794L801,649Z" fill="#4c989e" stroke="#4c989e" fill-opacity="1" stroke-opacity="1"></path><path d="M801,649L694,794L870,876Z" fill="#438e8f" stroke="#438e8f" fill-opacity="1" stroke-opacity="1"></path><path d="M801,649L870,876L938,686Z" fill="#3b8f91" stroke="#3b8f91" fill-opacity="1" stroke-opacity="1"></path><path d="M938,686L870,876L943,867Z" fill="#37857e" stroke="#37857e" fill-opacity="1" stroke-opacity="1"></path><path d="M938,686L943,867L1083,780Z" fill="#308780" stroke="#308780" fill-opacity="1" stroke-opacity="1"></path><path d="M938,686L1083,780L1121,717Z" fill="#2a8b87" stroke="#2a8b87" fill-opacity="1" stroke-opacity="1"></path><path d="M1121,717L1083,780L1322,849Z" fill="#1f8072" stroke="#1f8072" fill-opacity="1" stroke-opacity="1"></path><path d="M1121,717L1322,849L1244,615Z" fill="#1d8479" stroke="#1d8479" fill-opacity="1" stroke-opacity="1"></path><path d="M1244,615L1322,849L1415,668Z" fill="#1a8174" stroke="#1a8174" fill-opacity="1" stroke-opacity="1"></path><path d="M1415,668L1322,849L1461,865Z" fill="#17745d" stroke="#17745d" fill-opacity="1" stroke-opacity="1"></path><path d="M1415,668L1461,865L1543,623Z" fill="#147967" stroke="#147967" fill-opacity="1" stroke-opacity="1"></path><path d="M1543,623L1461,865L1615,842Z" fill="#126f54" stroke="#126f54" fill-opacity="1" stroke-opacity="1"></path><path d="M1543,623L1615,842L1699,779Z" fill="#126f54" stroke="#126f54" fill-opacity="1" stroke-opacity="1"></path><path d="M1543,623L1699,779L1751,640Z" fill="#12755f" stroke="#12755f" fill-opacity="1" stroke-opacity="1"></path><path d="M1751,640L1699,779L1836,813Z" fill="#126949" stroke="#126949" fill-opacity="1" stroke-opacity="1"></path><path d="M1751,640L1836,813L1932,724Z" fill="#126846" stroke="#126846" fill-opacity="1" stroke-opacity="1"></path><path d="M1932,724L1836,813L2007,805Z" fill="#125d34" stroke="#125d34" fill-opacity="1" stroke-opacity="1"></path><path d="M1932,724L2007,805L1992,655Z" fill="#12613b" stroke="#12613b" fill-opacity="1" stroke-opacity="1"></path><path d="M-101,867L-78,928L26,861Z" fill="#91a68e" stroke="#91a68e" fill-opacity="1" stroke-opacity="1"></path><path d="M26,861L-78,928L97,984Z" fill="#8c9f84" stroke="#8c9f84" fill-opacity="1" stroke-opacity="1"></path><path d="M26,861L97,984L191,834Z" fill="#859e88" stroke="#859e88" fill-opacity="1" stroke-opacity="1"></path><path d="M191,834L97,984L231,1033Z" fill="#80947a" stroke="#80947a" fill-opacity="1" stroke-opacity="1"></path><path d="M191,834L231,1033L330,822Z" fill="#7a9683" stroke="#7a9683" fill-opacity="1" stroke-opacity="1"></path><path d="M330,822L231,1033L428,1002Z" fill="#748b75" stroke="#748b75" fill-opacity="1" stroke-opacity="1"></path><path d="M330,822L428,1002L513,817Z" fill="#6c9082" stroke="#6c9082" fill-opacity="1" stroke-opacity="1"></path><path d="M513,817L428,1002L485,1034Z" fill="#668572" stroke="#668572" fill-opacity="1" stroke-opacity="1"></path><path d="M513,817L485,1034L676,963Z" fill="#5d8473" stroke="#5d8473" fill-opacity="1" stroke-opacity="1"></path><path d="M513,817L676,963L694,794Z" fill="#558a82" stroke="#558a82" fill-opacity="1" stroke-opacity="1"></path><path d="M694,794L676,963L787,945Z" fill="#4b8177" stroke="#4b8177" fill-opacity="1" stroke-opacity="1"></path><path d="M694,794L787,945L870,876Z" fill="#44827b" stroke="#44827b" fill-opacity="1" stroke-opacity="1"></path><path d="M870,876L787,945L1000,959Z" fill="#3a7868" stroke="#3a7868" fill-opacity="1" stroke-opacity="1"></path><path d="M870,876L1000,959L943,867Z" fill="#357a6a" stroke="#357a6a" fill-opacity="1" stroke-opacity="1"></path><path d="M943,867L1000,959L1083,780Z" fill="#2e7b6b" stroke="#2e7b6b" fill-opacity="1" stroke-opacity="1"></path><path d="M1083,780L1000,959L1124,944Z" fill="#287662" stroke="#287662" fill-opacity="1" stroke-opacity="1"></path><path d="M1083,780L1124,944L1322,849Z" fill="#1f7762" stroke="#1f7762" fill-opacity="1" stroke-opacity="1"></path><path d="M1322,849L1124,944L1283,956Z" fill="#1d6c50" stroke="#1d6c50" fill-opacity="1" stroke-opacity="1"></path><path d="M1322,849L1283,956L1461,865Z" fill="#196a4c" stroke="#196a4c" fill-opacity="1" stroke-opacity="1"></path><path d="M1461,865L1283,956L1463,1028Z" fill="#17613b" stroke="#17613b" fill-opacity="1" stroke-opacity="1"></path><path d="M1461,865L1463,1028L1544,1010Z" fill="#145b31" stroke="#145b31" fill-opacity="1" stroke-opacity="1"></path><path d="M1461,865L1544,1010L1615,842Z" fill="#126039" stroke="#126039" fill-opacity="1" stroke-opacity="1"></path><path d="M1615,842L1544,1010L1708,915Z" fill="#125a2f" stroke="#125a2f" fill-opacity="1" stroke-opacity="1"></path><path d="M1615,842L1708,915L1699,779Z" fill="#12613b" stroke="#12613b" fill-opacity="1" stroke-opacity="1"></path><path d="M1699,779L1708,915L1836,813Z" fill="#125e37" stroke="#125e37" fill-opacity="1" stroke-opacity="1"></path><path d="M1836,813L1708,915L1867,967Z" fill="#125425" stroke="#125425" fill-opacity="1" stroke-opacity="1"></path><path d="M1836,813L1867,967L2007,805Z" fill="#125424" stroke="#125424" fill-opacity="1" stroke-opacity="1"></path><path d="M2007,805L1867,967L2075,956Z" fill="#124b14" stroke="#124b14" fill-opacity="1" stroke-opacity="1"></path><path d="M-78,928L231,1033L97,984Z" fill="#879479" stroke="#879479" fill-opacity="1" stroke-opacity="1"></path><path d="M231,1033L485,1034L428,1002Z" fill="#708071" stroke="#708071" fill-opacity="1" stroke-opacity="1"></path><path d="M485,1034L1463,1028L1000,959Z" fill="#306b59" stroke="#306b59" fill-opacity="1" stroke-opacity="1"></path><path d="M485,1034L1000,959L676,963Z" fill="#4b7769" stroke="#4b7769" fill-opacity="1" stroke-opacity="1"></path><path d="M676,963L1000,959L787,945Z" fill="#407766" stroke="#407766" fill-opacity="1" stroke-opacity="1"></path><path d="M1000,959L1463,1028L1124,944Z" fill="#1e6749" stroke="#1e6749" fill-opacity="1" stroke-opacity="1"></path><path d="M1124,944L1463,1028L1283,956Z" fill="#1b6341" stroke="#1b6341" fill-opacity="1" stroke-opacity="1"></path><path d="M1463,1028L2075,956L1867,967Z" fill="#124a17" stroke="#124a17" fill-opacity="1" stroke-opacity="1"></path><path d="M1463,1028L1867,967L1544,1010Z" fill="#125025" stroke="#125025" fill-opacity="1" stroke-opacity="1"></path><path d="M1544,1010L1867,967L1708,915Z" fill="#12511f" stroke="#12511f" fill-opacity="1" stroke-opacity="1"></path></g></svg>